<svg width="658" height="72" viewBox="0 0 658 72" fill="none" xmlns="http://www.w3.org/2000/svg">
<path d="M1.3113e-05 70.272V1.536H21.024C31.52 1.536 39.936 4.704 46.272 11.04C52.672 17.376 55.872 25.664 55.872 35.904C55.872 46.208 52.672 54.528 46.272 60.864C39.936 67.136 31.52 70.272 21.024 70.272H1.3113e-05ZM8.83201 9.984V61.824H21.024C29.024 61.824 35.328 59.552 39.936 55.008C44.544 50.4 46.848 44.032 46.848 35.904C46.848 27.84 44.544 21.504 39.936 16.896C35.328 12.288 29.024 9.984 21.024 9.984H8.83201ZM207.797 63.744C212.149 63.744 215.701 62.176 218.453 59.04C221.333 55.904 222.773 51.808 222.773 46.752C222.773 41.824 221.333 37.76 218.453 34.56C215.637 31.36 212.085 29.76 207.797 29.76C203.573 29.76 200.021 31.36 197.141 34.56C194.261 37.76 192.821 41.824 192.821 46.752C192.821 51.744 194.261 55.808 197.141 58.944C200.021 62.144 203.573 63.744 207.797 63.744ZM206.357 71.808C200.213 71.808 194.933 69.376 190.517 64.512C186.165 59.584 183.989 53.664 183.989 46.752C183.989 39.84 186.165 33.92 190.517 28.992C194.933 24.128 200.213 21.696 206.357 21.696C209.813 21.696 212.949 22.432 215.765 23.904C218.645 25.376 220.853 27.328 222.389 29.76H222.773L222.389 23.232V1.536H231.221V70.272H222.773V63.744H222.389C220.853 66.176 218.645 68.128 215.765 69.6C212.949 71.072 209.813 71.808 206.357 71.808ZM397.313 51.936C397.313 57.952 395.105 62.784 390.689 66.432C386.209 70.016 380.769 71.808 374.369 71.808C368.673 71.808 363.649 70.144 359.297 66.816C354.945 63.488 351.937 58.944 350.273 53.184L358.721 49.728C359.297 51.776 360.097 53.632 361.121 55.296C362.145 56.96 363.329 58.4 364.673 59.616C366.081 60.768 367.617 61.696 369.281 62.4C370.945 63.04 372.705 63.36 374.561 63.36C378.593 63.36 381.889 62.336 384.449 60.288C387.009 58.176 388.289 55.392 388.289 51.936C388.289 49.056 387.233 46.592 385.121 44.544C383.137 42.56 379.425 40.64 373.985 38.784C368.481 36.8 365.057 35.456 363.713 34.752C356.417 31.04 352.769 25.568 352.769 18.336C352.769 13.28 354.785 8.96 358.817 5.376C362.913 1.792 367.937 -1.90735e-06 373.889 -1.90735e-06C379.137 -1.90735e-06 383.681 1.344 387.521 4.032C391.361 6.656 393.921 9.952 395.201 13.92L386.945 17.376C386.177 14.816 384.641 12.704 382.337 11.04C380.097 9.312 377.345 8.448 374.081 8.448C370.625 8.448 367.713 9.408 365.345 11.328C362.977 13.12 361.793 15.456 361.793 18.336C361.793 20.704 362.721 22.752 364.577 24.48C366.625 26.208 371.073 28.256 377.921 30.624C384.897 32.992 389.857 35.904 392.801 39.36C395.809 42.752 397.313 46.944 397.313 51.936ZM530.046 70.272H521.214V23.232H529.662V30.912H530.046C530.942 28.416 532.766 26.304 535.518 24.576C538.334 22.784 541.086 21.888 543.774 21.888C546.334 21.888 548.51 22.272 550.302 23.04L547.614 31.584C546.526 31.136 544.798 30.912 542.43 30.912C539.102 30.912 536.19 32.256 533.694 34.944C531.262 37.632 530.046 40.768 530.046 44.352V70.272Z" fill="#4286F5"/>
<path d="M66.951 46.752C66.951 39.52 69.223 33.536 73.767 28.8C78.375 24.064 84.167 21.696 91.143 21.696C98.119 21.696 103.879 24.064 108.423 28.8C113.031 33.536 115.335 39.52 115.335 46.752C115.335 54.048 113.031 60.032 108.423 64.704C103.879 69.44 98.119 71.808 91.143 71.808C84.167 71.808 78.375 69.44 73.767 64.704C69.223 59.968 66.951 53.984 66.951 46.752ZM75.783 46.752C75.783 51.808 77.255 55.904 80.199 59.04C83.143 62.176 86.791 63.744 91.143 63.744C95.495 63.744 99.143 62.176 102.087 59.04C105.031 55.904 106.503 51.808 106.503 46.752C106.503 41.76 105.031 37.696 102.087 34.56C99.079 31.36 95.431 29.76 91.143 29.76C86.855 29.76 83.207 31.36 80.199 34.56C77.255 37.696 75.783 41.76 75.783 46.752ZM292.303 71.808C285.391 71.808 279.695 69.44 275.215 64.704C270.735 59.968 268.495 53.984 268.495 46.752C268.495 39.584 270.671 33.632 275.023 28.896C279.375 24.096 284.943 21.696 291.727 21.696C298.703 21.696 304.239 23.968 308.335 28.512C312.495 32.992 314.575 39.296 314.575 47.424L314.479 48.384H277.519C277.647 52.992 279.183 56.704 282.127 59.52C285.071 62.336 288.591 63.744 292.687 63.744C298.319 63.744 302.735 60.928 305.935 55.296L313.807 59.136C311.695 63.104 308.751 66.208 304.975 68.448C301.263 70.688 297.039 71.808 292.303 71.808ZM278.191 41.088H305.167C304.911 37.824 303.567 35.136 301.135 33.024C298.767 30.848 295.567 29.76 291.535 29.76C288.207 29.76 285.327 30.784 282.895 32.832C280.527 34.88 278.959 37.632 278.191 41.088ZM432.328 71.808C425.416 71.808 419.72 69.44 415.24 64.704C410.76 59.968 408.52 53.984 408.52 46.752C408.52 39.584 410.696 33.632 415.048 28.896C419.4 24.096 424.968 21.696 431.752 21.696C438.728 21.696 444.264 23.968 448.36 28.512C452.52 32.992 454.6 39.296 454.6 47.424L454.504 48.384H417.544C417.672 52.992 419.208 56.704 422.152 59.52C425.096 62.336 428.616 63.744 432.712 63.744C438.344 63.744 442.76 60.928 445.96 55.296L453.832 59.136C451.72 63.104 448.776 66.208 445 68.448C441.288 70.688 437.064 71.808 432.328 71.808ZM418.216 41.088H445.192C444.936 37.824 443.592 35.136 441.16 33.024C438.792 30.848 435.592 29.76 431.56 29.76C428.232 29.76 425.352 30.784 422.92 32.832C420.552 34.88 418.984 37.632 418.216 41.088ZM615.845 1.536H624.677V23.232L624.293 29.76H624.677C626.021 27.456 628.069 25.536 630.821 24C633.637 22.464 636.549 21.696 639.557 21.696C645.317 21.696 649.733 23.36 652.805 26.688C655.941 29.952 657.509 34.624 657.509 40.704V70.272H648.677V42.432C648.677 33.984 644.933 29.76 637.445 29.76C633.861 29.76 630.821 31.264 628.325 34.272C625.893 37.216 624.677 40.672 624.677 44.64V70.272H615.845V1.536Z" fill="#EA4235"/>
<path d="M125.47 46.752C125.47 39.52 127.742 33.536 132.286 28.8C136.894 24.064 142.686 21.696 149.662 21.696C156.638 21.696 162.398 24.064 166.942 28.8C171.55 33.536 173.854 39.52 173.854 46.752C173.854 54.048 171.55 60.032 166.942 64.704C162.398 69.44 156.638 71.808 149.662 71.808C142.686 71.808 136.894 69.44 132.286 64.704C127.742 59.968 125.47 53.984 125.47 46.752ZM134.302 46.752C134.302 51.808 135.774 55.904 138.718 59.04C141.662 62.176 145.31 63.744 149.662 63.744C154.014 63.744 157.662 62.176 160.606 59.04C163.55 55.904 165.022 51.808 165.022 46.752C165.022 41.76 163.55 37.696 160.606 34.56C157.598 31.36 153.95 29.76 149.662 29.76C145.374 29.76 141.726 31.36 138.718 34.56C135.774 37.696 134.302 41.76 134.302 46.752ZM473.909 55.872C473.909 58.176 474.869 60.096 476.789 61.632C478.773 63.168 481.077 63.936 483.701 63.936C487.413 63.936 490.709 62.56 493.589 59.808C496.533 57.056 498.005 53.824 498.005 50.112C495.253 47.936 491.413 46.848 486.485 46.848C482.901 46.848 479.893 47.712 477.461 49.44C475.093 51.168 473.909 53.312 473.909 55.872ZM485.333 21.696C491.861 21.696 497.013 23.456 500.789 26.976C504.565 30.432 506.453 35.2 506.453 41.28V70.272H498.005V63.744H497.621C493.973 69.12 489.109 71.808 483.029 71.808C477.845 71.808 473.493 70.272 469.973 67.2C466.517 64.128 464.789 60.288 464.789 55.68C464.789 50.816 466.613 46.944 470.261 44.064C473.973 41.184 478.901 39.744 485.045 39.744C490.293 39.744 494.613 40.704 498.005 42.624V40.608C498.005 37.536 496.789 34.944 494.357 32.832C491.925 30.656 489.077 29.568 485.813 29.568C480.885 29.568 476.981 31.648 474.101 35.808L466.325 30.912C470.613 24.768 476.949 21.696 485.333 21.696Z" fill="#FABC06"/>
<path d="M255.621 1.536V70.272H246.789V1.536H255.621ZM582.393 71.808C575.417 71.808 569.625 69.44 565.017 64.704C560.473 59.84 558.201 53.856 558.201 46.752C558.201 39.52 560.473 33.536 565.017 28.8C569.625 24.064 575.417 21.696 582.393 21.696C587.193 21.696 591.385 22.912 594.969 25.344C598.553 27.712 601.241 31.008 603.033 35.232L594.969 38.592C592.473 32.704 588.089 29.76 581.817 29.76C577.785 29.76 574.297 31.392 571.353 34.656C568.473 37.92 567.033 41.952 567.033 46.752C567.033 51.552 568.473 55.584 571.353 58.848C574.297 62.112 577.785 63.744 581.817 63.744C588.281 63.744 592.825 60.8 595.449 54.912L603.321 58.272C601.593 62.496 598.873 65.824 595.161 68.256C591.513 70.624 587.257 71.808 582.393 71.808Z" fill="#34A853"/>
</svg>
